# xmcd CD database file
#
# Track frame offsets:
#	150
#	12894
#	14322
#	18759
#	31224
#	53936
#	66433
#	88090
#	111910
#	132512
#	155893
#	180371
#	203815
#	213334
#	234737
#	256516
#	281492
#	297291
#	310477
#	333698
#	336662
#	338678
#
# Disc length: 4827 seconds
#
# Revision: 0
# Processed by: cddbd v1.5.2PL0 Copyright (c) Steve Scherf et al.
# Submitted via: CDex 1.51
#
DISCID=4912d916
DTITLE=Original Game Soundtrack - Tenchu - Stealth Assassins
DYEAR=1998
DGENRE=Video Game OST
TTITLE0=Opening Theme - Addua
TTITLE1=Title Screen
TTITLE2=Selection
TTITLE3=Training Mission
TTITLE4=Punish the Evil Merchant
TTITLE5=Battle with A Fierce Enemy
TTITLE6=Deliver the Secret Message
TTITLE7=Rescue the Captive Ninja
TTITLE8=Cross the Checkpoint
TTITLE9=Execute the Corrupt Minister
TTITLE10=Infiltrate the Manji Cult
TTITLE11=Destroy the Foreign Pirates
TTITLE12=Battle the Foreign Pirates
TTITLE13=Cure the Princess
TTITLE14=Reclaim the Castle
TTITLE15=Free the Princess
TTITLE16=Battle with Onikage
TTITLE17=Battle with Lord Mei-Oh
TTITLE18=Ending Theme - Faraway
TTITLE19=Mission Results
TTITLE20=Game Over
TTITLE21=Tenchu Suite
EXTD=YEAR: 1998
EXTT0=
EXTT1=
EXTT2=
EXTT3=
EXTT4=
EXTT5=
EXTT6=
EXTT7=
EXTT8=
EXTT9=
EXTT10=
EXTT11=
EXTT12=
EXTT13=
EXTT14=
EXTT15=
EXTT16=
EXTT17=
EXTT18=
EXTT19=
EXTT20=
EXTT21=
PLAYORDER=
